# xmcd
#
# Track frame offsets:
#	150
#	16953
#	32261
#	49948
#	67021
#	85225
#	104672
#	119086
#	134295
#	148481
#	166879
#	185171
#	201948
#	216874
#	235289
#	261841
#
# Disc length: 3497 seconds
#
# Revision: 1
# Processed by: cddbd v1.5.2PL0 Copyright (c) Steve Scherf et al.
# Submitted via: audiograbber 1.83.01
#
DISCID=fa0da710
DTITLE=Various Artist - Best Karaoke Gal Country Vol 2
DYEAR=2010
DGENRE=Karaoke
TTITLE0=Carolyn Dawn Johnson - Complicated
TTITLE1=Cyndi Thomson - What I really meant to say
TTITLE2=Dixie Chicks - Heartbreak town
TTITLE3=Dixie Chicks - Wide Open Spaces
TTITLE4=Faith Hill - Breath
TTITLE5=Faith Hill - That's how love moves
TTITLE6=Forester Sisters - Men
TTITLE7=Gretchen Wilson - Here for the party
TTITLE8=Jamie O'Neal - When I think about angels
TTITLE9=Jamie O'Neal - Shiver
TTITLE10=Jessica Andrews - Helplessly Hopelessly
TTITLE11=Jessica Andrews - Who I am
TTITLE12=Jo Dee Messina - My Give A Damn's Busted
TTITLE13=Jo Dee Messina - Burn
TTITLE14=LeAnn Rimes - Big Deal
TTITLE15=Various Artist - Reprise
EXTD=
EXTT0=
EXTT1=
EXTT2=
EXTT3=
EXTT4=
EXTT5=
EXTT6=
EXTT7=
EXTT8=
EXTT9=
EXTT10=
EXTT11=
EXTT12=
EXTT13=
EXTT14=
EXTT15=
PLAYORDER=
